<svg width="40" height="46" viewBox="0 0 40 46" fill="none" xmlns="http://www.w3.org/2000/svg">
<path d="M25.4982 23.5117V45.925H0.697754L6.4148 31.0147L25.4982 23.5117Z" fill="#E57281"/>
<path d="M31.1991 14.0818C31.1831 14.0818 31.1512 14.0977 31.1353 14.0977L23.7734 16.0411C21.1384 16.742 19.1103 18.6854 18.248 21.1386H15.4214C13.6328 21.1386 12.1796 22.5882 12.1796 24.3724V24.4201C12.1796 26.1087 13.4731 27.4946 15.134 27.638C15.118 27.6539 15.118 27.6539 15.118 27.6539C15.118 27.6539 13.8085 33.8665 6.15918 31.7797C6.15918 31.7797 6.46258 15.4358 6.78197 10.3542C7.05345 6.16467 29.3307 -1.76835 31.3908 1.60876C33.2113 4.60355 31.1033 6.00537 29.3148 6.62663C32.4767 5.95758 38.4492 5.06552 39.0561 7.72578C39.7587 10.8162 33.4508 13.4924 31.1991 14.0818Z" fill="#9A3B82"/>
<path d="M32.6367 25.5349H31.8542L32.0777 29.3581C32.2374 32.098 30.0336 34.4237 27.2869 34.4237H23.8375C20.5159 34.4237 17.8171 31.7316 17.8171 28.4182V27.6695H15.4376C13.649 27.6695 12.1958 26.2199 12.1958 24.4358V24.388C12.1958 22.6038 13.649 21.1542 15.4376 21.1542H18.2642C19.1265 18.701 21.1547 16.7417 23.7896 16.0567L31.1515 14.1133L33.6747 24.1968C33.9302 24.834 33.3233 25.5349 32.6367 25.5349Z" fill="#E57281"/>
<path fill-rule="evenodd" clip-rule="evenodd" d="M18.6075 28.3241C18.8269 28.345 18.9879 28.5394 18.9669 28.7584C18.8141 30.3558 19.5331 31.7373 20.7068 32.7343C21.8855 33.7357 23.5023 34.3278 25.069 34.3278C25.2895 34.3278 25.4683 34.5061 25.4683 34.7261C25.4683 34.946 25.2895 35.1243 25.069 35.1243C23.3142 35.1243 21.5135 34.4659 20.189 33.3407C18.8595 32.2111 17.9896 30.5898 18.1721 28.6827C18.193 28.4637 18.388 28.3032 18.6075 28.3241Z" fill="#9A3B82"/>
<path fill-rule="evenodd" clip-rule="evenodd" d="M14.6245 22.7303C14.6245 22.5103 14.8033 22.332 15.0237 22.332C16.4899 22.332 17.6747 23.5139 17.6747 24.9764C17.6747 25.1963 17.4959 25.3746 17.2754 25.3746C17.0549 25.3746 16.8762 25.1963 16.8762 24.9764C16.8762 23.9538 16.0489 23.1285 15.0237 23.1285C14.8033 23.1285 14.6245 22.9502 14.6245 22.7303Z" fill="#9A3B82"/>
<path d="M29.9229 22.6993C30.2492 22.6993 30.5138 22.1501 30.5138 21.4727C30.5138 20.7953 30.2492 20.2461 29.9229 20.2461C29.5966 20.2461 29.332 20.7953 29.332 21.4727C29.332 22.1501 29.5966 22.6993 29.9229 22.6993Z" fill="#9A3B82"/>
<path fill-rule="evenodd" clip-rule="evenodd" d="M27.368 18.8917L27.1256 18.5753C26.9504 18.7089 26.9169 18.9588 27.0508 19.1336C27.1846 19.3083 27.4351 19.3417 27.6102 19.2083L27.6127 19.2065C27.6153 19.2046 27.6197 19.2013 27.626 19.1967C27.6386 19.1875 27.6585 19.1733 27.6854 19.1547C27.7392 19.1175 27.8209 19.0629 27.9285 18.9967C28.1438 18.8642 28.4614 18.6857 28.8639 18.5068C29.6704 18.1484 30.8081 17.7926 32.1429 17.7926C32.3634 17.7926 32.5421 17.6143 32.5421 17.3943C32.5421 17.1744 32.3634 16.9961 32.1429 16.9961C30.667 16.9961 29.4173 17.389 28.539 17.7793C28.0992 17.9747 27.75 18.1706 27.5092 18.3189C27.3887 18.393 27.295 18.4554 27.2304 18.5001C27.1981 18.5225 27.173 18.5404 27.1555 18.5532C27.1467 18.5596 27.1398 18.5647 27.1348 18.5684L27.1288 18.5729L27.1268 18.5744L27.1261 18.5749L27.1258 18.5751C27.1257 18.5752 27.1256 18.5753 27.368 18.8917Z" fill="#9A3B82"/>
</svg>
